# xmcd
# 
# Track frame offsets:
#     150
#     16355
#     33172
# 
# Disc length: 692
# 
# Revision: 15
# Processed by: cddbd v1.5.2PL0 Copyright (c) Steve Scherf et al.
# Submitted via: fre:ac v1.0.31
# 
DISCID=1702b203
DTITLE=Mariah Carey - Without You
DYEAR=1994
DGENRE=Pop
TTITLE0=Without You
TTITLE1=Never Forget You
TTITLE2=Dreamlover [Live]
EXTD=
EXTT0=
EXTT1=
EXTT2=
PLAYORDER=
